*********** **** **** *** ******** *********** **** *** **********

*+* +*+*+* *+*+*+ *+* *+* *+* *+* *+* *+*+* *+* *+*

+*+ +*+ +*+*+ +*+ +*+ +*+ +*+ +*+ *+*+*+ +*+ +*+

+$+ +$+ +*+ +$+ +$++*++$++* *$* +$+ +$+ +*+ +$+ +$++*++$

+$+ +$+ +$+ +$+ +$+ +$+ +$+$ +$+ +$+ +$+$+$ +$+

$+$ $+$ $+$ $+$ $+$ $+$ $+$ $+$ $+$ $+$+$ $+$

$$$$$$$$$$$ $$$ $$$ $$$ $$$ $$$$$$$$ $$$$$$$$$$$ $$$ $$$$ $$$$$$$$$$









Another Fine Release Brought to you from - IMAGiNE





********************************************************************************************************************

Little Fockers TS XViD - IMAGiNE

********************************************************************************************************************



Ripper ...........:IMAGiNE IMDB Rating.......:5.3/10

Video Codec.......:XVID Release Date......:27/12/10

Audio Codec.......:MP3 Theatre Date......:22/12/10

Audio Bitrate.....:192 Runtime...........:1h 33mn

Subtitles.........:NIL Language..........:ENGLISH

Resolution........:640 x 354 IMDb URL.......... http://www.imdb.com/title/tt0970866/







DETAILS:



Video

ID : 0

Format : MPEG-4 Visual

Format profile : Advanced Simple@L5

Format settings, BVOP : Yes

Format settings, QPel : No

Format settings, GMC : No warppoints

Format settings, Matrix : Default (H.263)

Muxing mode : Packed bitstream

Codec ID : XVID

Codec ID/Hint : XviD

Duration : 1h 33mn

Bit rate : 850 Kbps

Width : 640 pixels

Height : 354 pixels

Display aspect ratio : 16:9

Frame rate : 25.000 fps

Color space : YUV

Chroma subsampling : 4:2:0

Bit depth : 8 bits

Scan type : Progressive

Compression mode : Lossy

Bits/(Pixel*Frame) : 0.150

Stream size : 568 MiB (81%)

Writing library : XviD 1.1.2 (UTC 2006-11-01)



Audio

ID : 1

Format : MPEG Audio

Format version : Version 1

Format profile : Layer 3

Codec ID : 55

Codec ID/Hint : MP3

Duration : 1h 33mn

Bit rate mode : Constant

Bit rate : 192 Kbps

Channel(s) : 2 channels

Sampling rate : 44.1 KHz

Compression mode : Lossy

Stream size : 128 MiB (18%)

Alignment : Split accross interleaves

Interleave, duration : 40 ms (1.00 video frame)

Interleave, preload duration : 500 ms







SOURCES:



VIDEO:Serenity Thanks

AUDIO:Own





NOTES:



IMAGiNE bringing you another release.......... Little Fockers



Here we are with a nice TS of this one...

We we're sent the original video from our friend's at Serenity so thanks mates. We used 15 seconds

of cam audio for the very beginning inrto scene and the rest is line...

And I must say very good line imo... :P



We did our normal filtering to the video of changing the brightness,contrast,rgb colors, resize

along with a slight sparpening filter. The audio is is some nice LiNE so it was just a matter

of syncing it and then muxing it to the video.... :P





Enjoy folks......







SCREENS:

